<?xml version="1.0" encoding="UTF-8"?>
<svg id="Layer_2" data-name="Layer 2" xmlns="http://www.w3.org/2000/svg" viewBox="0 0 436.06 225.06">
  <defs>
    <style>
      .cls-1 {
        fill: #ffa587;
      }

      .cls-2 {
        fill: #fff;
      }

      .cls-3 {
        fill: #194664;
      }

      .cls-4 {
        stroke-width: 1.58px;
      }

      .cls-4, .cls-5, .cls-6, .cls-7, .cls-8, .cls-9, .cls-10 {
        fill: none;
        stroke-miterlimit: 10;
      }

      .cls-4, .cls-9 {
        stroke: #acaffa;
      }

      .cls-5 {
        stroke: #b1b3e3;
        stroke-width: 1.15px;
      }

      .cls-11 {
        fill: #8e90ce;
      }

      .cls-12 {
        fill: #73c8f0;
      }

      .cls-13 {
        fill: #41378c;
      }

      .cls-6 {
        stroke-width: 1.06px;
      }

      .cls-6, .cls-7, .cls-8, .cls-10 {
        stroke: #8e90ce;
      }

      .cls-14 {
        fill: #bfc0f3;
      }

      .cls-15 {
        fill: #6e64c3;
      }

      .cls-16 {
        fill: #9a9cde;
      }

      .cls-17 {
        fill: #5046af;
      }

      .cls-7 {
        stroke-width: .82px;
      }

      .cls-18 {
        fill: #ab51a6;
      }

      .cls-19 {
        fill: #8ed1f0;
      }

      .cls-20 {
        fill: #e64b55;
      }

      .cls-21 {
        fill: #f5876e;
      }

      .cls-8 {
        stroke-width: 1.31px;
      }

      .cls-9 {
        stroke-width: 1.66px;
      }

      .cls-22 {
        fill: #ffdc64;
      }

      .cls-10 {
        stroke-width: 2.21px;
      }

      .cls-23 {
        fill: #acaffa;
      }

      .cls-24 {
        fill: #ffb49b;
      }

      .cls-25 {
        fill: #ff6473;
      }

      .cls-26 {
        fill: #00558c;
      }

      .cls-27 {
        fill: #be5ab9;
      }
    </style>
  </defs>
  <g id="OBJECTS">
    <g>
      <path class="cls-20" d="m141,69.24c-1.61-6.35-9.16-9.32-14.58-5.65-5.99,4.05-10.3,12.25-14.47,13.18-6.08,1.36-24.35-9.85-24.35-9.85l3.29,10.01s15.66,15.08,22.73,14.67c4.8-.28,13.73-8.26,21.6-11.35,4.39-1.73,6.91-6.43,5.79-11-.02-.07.02.07,0,0Z"/>
      <g>
        <path class="cls-16" d="m109.02,211.53s-6.81-28.43-45.91-35.1c-13.48-2.3-27.98,19.24-.63,21.21,11.3.81,26.5-1.44,46.55,13.89Z"/>
        <path class="cls-6" d="m59.29,185.95s38.82,2.21,56.3,35.95"/>
      </g>
      <g>
        <path class="cls-23" d="m390.06,50.94c-5.28,2.91-7.38,9.25-7.38,9.25,0,0,6.48,1.63,11.76-1.27,5.28-2.91,8.59-7.05,7.38-9.25-1.21-2.2-6.48-1.63-11.76,1.27Z"/>
        <path class="cls-23" d="m377.36,64.24c-4.36,1.34-6.88,5.71-6.88,5.71,0,0,4.54,2.2,8.9.87,4.36-1.34,7.44-3.89,6.88-5.71s-4.54-2.2-8.9-.87Z"/>
        <path class="cls-23" d="m373.42,58.5c-2.1,4.04-.76,8.91-.76,8.91,0,0,4.76-1.69,6.86-5.74,2.1-4.04,2.44-8.03.76-8.91-1.69-.88-4.76,1.69-6.86,5.74Z"/>
        <path class="cls-23" d="m369.5,73.02c-5.44.78-9.27,5.52-9.27,5.52,0,0,5,3.47,10.45,2.69s9.59-3.25,9.27-5.52c-.33-2.27-5-3.47-10.45-2.69Z"/>
        <path class="cls-23" d="m360.61,66.65c-1.98,5.13.28,10.78.28,10.78,0,0,5.48-2.66,7.46-7.79,1.98-5.13,1.86-9.96-.28-10.78-2.14-.83-5.48,2.66-7.46,7.79Z"/>
        <path class="cls-23" d="m363.46,83.61c-5.48-.49-10.29,3.25-10.29,3.25,0,0,4.07,4.53,9.55,5.02,5.48.49,10.08-.96,10.29-3.25.2-2.28-4.07-4.53-9.55-5.02Z"/>
        <path class="cls-23" d="m355.69,95.22c-5.82-.77-11.12,2.99-11.12,2.99,0,0,4.13,5.02,9.95,5.79,5.82.77,10.8-.57,11.12-2.99.32-2.42-4.13-5.02-9.95-5.79Z"/>
        <path class="cls-23" d="m348.53,106.87c-5.71-1.36-11.37,1.84-11.37,1.84,0,0,3.6,5.41,9.31,6.77,5.71,1.36,10.8.54,11.37-1.84.57-2.38-3.6-5.41-9.31-6.77Z"/>
        <path class="cls-23" d="m340.42,120.15c-5.86-.4-10.91,3.68-10.91,3.68,0,0,4.44,4.75,10.3,5.15,5.86.4,10.74-1.25,10.91-3.68.17-2.44-4.44-4.75-10.3-5.15Z"/>
        <path class="cls-23" d="m354.53,75.7c1.73,5.22-.81,10.76-.81,10.76,0,0-5.34-2.93-7.07-8.15s-1.36-10.04.81-10.76c2.18-.72,5.34,2.93,7.07,8.15Z"/>
        <path class="cls-23" d="m343.37,86.91c2.9,5.11,1.39,11.43,1.39,11.43,0,0-6.2-1.95-9.1-7.06-2.9-5.11-3.52-10.22-1.39-11.43,2.13-1.21,6.2,1.95,9.1,7.06Z"/>
        <path class="cls-23" d="m335.24,97.91c3.4,4.78,2.55,11.23,2.55,11.23,0,0-6.37-1.31-9.77-6.1s-4.54-9.81-2.55-11.23,6.37,1.31,9.77,6.1Z"/>
        <path class="cls-23" d="m329.19,112.57c2.57,5.28.67,11.49.67,11.49,0,0-6.06-2.34-8.63-7.62-2.57-5.28-2.87-10.42-.67-11.49s6.06,2.34,8.63,7.62Z"/>
        <path class="cls-23" d="m333.25,134.2c-5.81.81-9.91,5.85-9.91,5.85,0,0,5.32,3.73,11.14,2.92,5.81-.81,10.25-3.43,9.91-5.85-.34-2.42-5.32-3.73-11.14-2.92Z"/>
        <path class="cls-23" d="m320.69,129.11c3.6,4.63,3.02,11.11,3.02,11.11,0,0-6.42-1.04-10.02-5.68-3.6-4.63-4.96-9.61-3.02-11.11,1.93-1.5,6.42,1.04,10.02,5.68Z"/>
        <path class="cls-23" d="m328.17,149.71c-5.72,1.3-9.38,6.68-9.38,6.68,0,0,5.62,3.26,11.35,1.96,5.72-1.3,9.92-4.29,9.38-6.68-.54-2.38-5.62-3.26-11.35-1.96Z"/>
        <path class="cls-23" d="m315.22,145.69c3.98,4.31,3.96,10.81,3.96,10.81,0,0-6.48-.49-10.46-4.8-3.98-4.31-5.75-9.15-3.96-10.81,1.8-1.66,6.48.49,10.46,4.8Z"/>
        <path class="cls-9" d="m389,56.96s-30.03,13.07-52.91,54.84c-22.87,41.77-22.75,83.14-22.75,83.14"/>
      </g>
      <g>
        <path class="cls-16" d="m384.01,128.58c-34.3,6.57-35.88,22.73-60.57,22.46-24.68-.27-12.7,52.74-12.7,52.74,0,0,26.62-34.69,66.16-35.95,42.21-1.35,41.41-45.81,7.11-39.25Z"/>
        <path class="cls-11" d="m386.62,143.96c-12.85,9.54-28.11,15.96-43.89,18.7-4.24.63-8.97.94-12.94,2.66-14.52,5.92-19.72,23.52-18.63,38.04.39,5.03,1.5,10.15,4.22,14.51-3.02-4.19-4.32-9.37-4.95-14.44-2.11-17.83,6.4-39.4,26.41-41.39,1.23-.16,4.48-.58,5.68-.73,15.68-2.63,30.82-8.6,44.11-17.34h0Z"/>
      </g>
      <g>
        <path class="cls-14" d="m322.44,201.63s8.3-30.63,50.94-36.61c14.7-2.06,29.74,21.77.01,23.03-12.29.52-28.71-2.41-50.95,13.59Z"/>
        <path class="cls-5" d="m377.2,175.47s-42.19,1.16-62.23,37.21"/>
      </g>
      <g>
        <path class="cls-23" d="m166.32,68.5c-4.58,3.47-5.67,9.74-5.67,9.74,0,0,6.33.64,10.91-2.83,4.58-3.47,7.12-7.83,5.67-9.74-1.45-1.91-6.33-.64-10.91,2.83Z"/>
        <path class="cls-23" d="m156.19,82.8c-3.92,1.87-5.7,6.34-5.7,6.34,0,0,4.59,1.45,8.51-.42,3.92-1.87,6.47-4.7,5.7-6.34-.78-1.63-4.59-1.45-8.51.42Z"/>
        <path class="cls-23" d="m151.68,77.94c-1.42,4.1.52,8.5.52,8.5,0,0,4.25-2.25,5.67-6.36,1.42-4.1,1.19-7.91-.52-8.5-1.71-.59-4.25,2.25-5.67,6.36Z"/>
        <path class="cls-23" d="m150,92.16c-5.02,1.49-7.97,6.49-7.97,6.49,0,0,5.2,2.58,10.22,1.09,5.02-1.49,8.59-4.4,7.97-6.49-.62-2.09-5.2-2.58-10.22-1.09Z"/>
        <path class="cls-23" d="m140.74,87.39c-1.16,5.11,1.76,10.13,1.76,10.13,0,0,4.79-3.27,5.95-8.38,1.16-5.11.37-9.64-1.76-10.13-2.13-.48-4.79,3.27-5.95,8.38Z"/>
        <path class="cls-23" d="m145.78,102.98c-5.23.3-9.25,4.49-9.25,4.49,0,0,4.47,3.71,9.7,3.41,5.23-.3,9.37-2.31,9.25-4.49-.12-2.18-4.47-3.71-9.7-3.41Z"/>
        <path class="cls-23" d="m140.06,115c-5.59.08-10.07,4.36-10.07,4.36,0,0,4.59,4.16,10.18,4.08,5.59-.08,10.1-2.03,10.07-4.36s-4.59-4.16-10.18-4.08Z"/>
        <path class="cls-23" d="m134.93,126.98c-5.57-.49-10.46,3.31-10.46,3.31,0,0,4.14,4.6,9.71,5.09,5.57.49,10.25-.99,10.46-3.31.2-2.32-4.14-4.6-9.71-5.09Z"/>
        <path class="cls-23" d="m129.12,140.61c-5.58.43-9.77,4.99-9.77,4.99,0,0,4.84,3.86,10.42,3.43,5.58-.43,9.95-2.66,9.77-4.99-.18-2.32-4.84-3.86-10.42-3.43Z"/>
        <path class="cls-23" d="m136.26,96.76c2.35,4.68.73,10.25.73,10.25,0,0-5.44-2.02-7.79-6.7-2.35-4.68-2.68-9.27-.73-10.25,1.95-.98,5.44,2.02,7.79,6.7Z"/>
        <path class="cls-23" d="m127.3,108.87c3.44,4.41,2.9,10.58,2.9,10.58,0,0-6.11-.98-9.55-5.39s-4.73-9.15-2.9-10.58,6.11.98,9.55,5.39Z"/>
        <path class="cls-23" d="m121.16,120.37c3.87,4.04,3.96,10.23,3.96,10.23,0,0-6.18-.35-10.05-4.39-3.87-4.04-5.64-8.62-3.96-10.23s6.18.35,10.05,4.39Z"/>
        <path class="cls-23" d="m117.49,135.03c3.15,4.62,2.22,10.74,2.22,10.74,0,0-6.04-1.37-9.19-5.98-3.15-4.62-4.15-9.43-2.22-10.74,1.92-1.31,6.04,1.37,9.19,5.98Z"/>
        <path class="cls-23" d="m124.31,154.86c-5.37,1.57-8.53,6.89-8.53,6.89,0,0,5.54,2.78,10.9,1.2,5.37-1.57,9.19-4.66,8.53-6.89-.65-2.24-5.54-2.78-10.9-1.21Z"/>
        <path class="cls-23" d="m111.77,151.79c4.04,3.87,4.39,10.05,4.39,10.05,0,0-6.19-.09-10.23-3.96s-6-8.37-4.39-10.05c1.61-1.68,6.19.09,10.23,3.96Z"/>
        <path class="cls-23" d="m121.67,170.17c-5.21,2.02-7.92,7.59-7.92,7.59,0,0,5.75,2.29,10.97.27s8.76-5.42,7.92-7.59-5.75-2.29-10.97-.27Z"/>
        <path class="cls-23" d="m108.92,168.19c4.35,3.51,5.23,9.64,5.23,9.64,0,0-6.18.44-10.53-3.08-4.35-3.51-6.69-7.83-5.23-9.64s6.18-.44,10.53,3.08Z"/>
        <path class="cls-4" d="m166.15,74.32s-26.49,16.49-42.26,59.03c-15.77,42.54-9.92,81.52-9.92,81.52"/>
      </g>
      <g>
        <path class="cls-16" d="m309.36,115s-6.2-40.83,17.99-69.23c10.97-12.88,41.94-2.58,16.79,20.19-10.4,9.41-26.93,18.81-34.78,49.04Z"/>
        <path class="cls-8" d="m338.32,52.15s-36.16,31.76-27.46,77.98"/>
      </g>
      <g>
        <path class="cls-16" d="m108.44,196.9s5.19-60.89-68-99.85c-25.23-13.43-68.16,19.76-15.21,41.65,21.88,9.05,53.52,14.58,83.21,58.19Z"/>
        <path class="cls-10" d="m26.62,113.43s75.56,29.93,88.03,108.38"/>
      </g>
      <path class="cls-2" d="m139.52,0h164.25c7,0,12.68,5.68,12.68,12.68v202.84c0,5.26-4.27,9.54-9.54,9.54h-170.52c-5.26,0-9.54-4.27-9.54-9.54V12.68c0-7,5.68-12.68,12.68-12.68Z"/>
      <g>
        <path class="cls-3" d="m354.93,124.52c-.52,3.65-5.11,8.09-5.11,8.09,0,0-4.32-3.48-3.91-7.15s2.81-6.41,5.37-6.13,4.05,2.38,3.65,5.19Z"/>
        <path class="cls-26" d="m424.8,208.05c1.35-2.72,3.16-1.68,6.39.17,3.23,1.84,5.27,3.63,4.8,4.46-.44.78-2.21.75-5.86.04-4.38-.85-6.21-2.9-5.33-4.67Z"/>
        <path class="cls-24" d="m420.5,207.86l6.05-.06c.77.05,1.38.69,1.38,1.47h0c0,.78-.61,1.43-1.39,1.47l-6.03.58v-3.45Z"/>
        <path class="cls-26" d="m339.6,217.62c.54,2.99-1.54,3.24-5.22,3.68-3.69.45-6.4.24-6.52-.71-.11-.89,1.32-1.93,4.67-3.53,4.02-1.93,6.72-1.38,7.07.56Z"/>
        <path class="cls-24" d="m337.2,210.57l.79,5.99c.04.78-.52,1.45-1.29,1.54h0c-.78.09-1.49-.43-1.63-1.2l-1.3-5.92,3.43-.42Z"/>
        <path class="cls-17" d="m323.56,176.71c-3.95,8.94,10.21,37.2,10.21,37.2,1.75.21,3.37.12,4.7-.66,0,0-1.62-20.94-.6-23.59,1.1-2.86,22.5,4.12,27.62-.43,3.22-2.86-.78-12.72-8.44-15.01-5.26-1.58-29.33-6.93-33.49,2.48Z"/>
        <path class="cls-15" d="m354.43,188.76c1.95,7.99,8.66,25.79,15.16,29.22,11.65,6.14,52.48-6.17,52.48-6.17.69-1.58.74-3.34-.04-5.33,0,0-37.09.66-40.9-3.08-3.5-3.45,1.49-15.24-1.9-23.92-3.29-8.42-12.23-9.77-12.23-9.77h0c-8.28,0-14.61,7.42-13.27,15.59.19,1.15.42,2.31.7,3.46Z"/>
        <path class="cls-2" d="m339.93,179.12s-8.77-18.31-8.33-27.52c.27-5.68,1.97-16.26,12.67-17.88,7.14-1.08,22.03,6.28,22.63,15.48.5,7.6,1.34,17.04-4.23,26.5,0,0-11.22,7.61-22.74,3.44Z"/>
        <path class="cls-12" d="m351.02,150.42c1.81,5.33,4.73,10.26,6.87,15.46,1.39,3.4,2.75,6.81,4.18,10.18.39-.23.6-.37.6-.37,5.57-9.45,5.59-18.98,5.09-26.58-.36-5.44-9.24-12.26-12.36-12.94-3.57,4.27-6.31,8.55-4.37,14.25Z"/>
        <path class="cls-12" d="m351.79,172.65c-1.85-5.19-4.27-10.11-6.41-15.17-2.77-6.56-6.46-14.43-6.49-21.84-5.95,3.71-7.09,11.4-7.3,15.96-.44,9.22,8.33,27.52,8.33,27.52,5.1,1.85,10.13,1.38,14.17.29-.75-2.26-1.5-4.52-2.3-6.76Z"/>
        <path class="cls-1" d="m347.74,141.84h0c2.07-.3,3.51-2.21,3.21-4.29l-1.77-12.37-7.5,1.07,1.77,12.37c.3,2.07,2.21,3.51,4.29,3.21Z"/>
        <path class="cls-21" d="m343.46,138.63l-1-6.97,7.36-1.05.2,1.4c.51,3.57-1.65,8.24-5.11,9.1-.76-.58-1.31-1.45-1.45-2.47Z"/>
        <path class="cls-24" d="m343.25,139.36h0c3.28-.47,7.12-5.07,6.65-8.35l-.97-6.77-11.88,1.7.97,6.77c.47,3.28,3.8,6.85,5.24,6.65Z"/>
        <path class="cls-1" d="m351.92,127.6c.21,1.47-.8,2.82-2.24,3.03l-.76-5.31c1.45-.21,2.79.81,3,2.28Z"/>
        <path class="cls-1" d="m336.91,125.05l11.81-1.69s.49,3.1.64,4.15c.04.27.02.54-.05.79-.26-.06-.51-.14-.74-.26-.49-.26-1.05-.32-1.6-.25-1.2.16-2.37-.1-3.36-.68-1.38-.82-3.05-1.09-4.58-.62-.32.1-.66.18-1,.23-.28.04-.59.06-.87.06l-.25-1.72Z"/>
        <path class="cls-24" d="m346.67,173.41l-6.19-.78c-1.87-.23-3.61-1.03-5.25-2.29l-.02.03c-.41.46-.37,1.15.08,1.57.6.56,1.3,1.27,1.18,1.51-.18.37-.86-.3-1.54-.23-.47.05-.91.31-1.15.72-1.04,1.75-1.34,3.5-.84,5.27.14.51.7.78,1.19.59l6.44-1.7,5.33-1.19.78-3.48Z"/>
        <path class="cls-1" d="m342.64,172.9l4.04.51-.78,3.48-4.07.91c.16-1.65.43-3.29.81-4.9Z"/>
        <path class="cls-19" d="m358.29,141.3c1.96-1.06,4.41-.42,5.61,1.47,4.31,6.82,14.5,23.76,14.2,30.83-.29,6.96-14.21,11.56-25.56,12.01-5.14.21-9.38-4.14-9.03-9.27,0-.08.01-.15.02-.23.34-4.62,4.36-8.13,8.99-7.99,5.06.15,11.06-.04,12.05-1.68,1.02-1.69-4.99-13.5-8.1-19.38-1.09-2.06-.31-4.59,1.73-5.71.03-.02.06-.03.1-.05Z"/>
        <path class="cls-1" d="m341.28,140.02s1.16-3.71-1.48-5.52c-1.71-1.18-2.1-3.88-2.46-6.43h0c-1.24,1.44-1.91,3.27-1.89,5.17v.85c.03,1.77.59,3.49,1.62,4.93l1.08,1.51-.88,2.82,3.21,2.24.79-5.58Z"/>
        <path class="cls-19" d="m341.66,143.03c3.3,1.44,5.02,5.29,4.02,8.97-2.95,10.89-8.86,29.71-14.28,28.48-4.25-.96-1.83-19.51.26-31.75.82-4.81,5.64-7.63,9.85-5.76.05.02.1.04.15.06Z"/>
        <path class="cls-3" d="m346.52,115.56c-1.31-.19-2.58.02-3.67.52-1.14.53-2.34.86-3.6.86-1.73,0-3.48,1.34-4.39,3.07-.69,1.32-.57,3.18-.29,4.65.26,1.39,1.68,2.21,3.02,1.79.18-.06.36-.12.55-.18,1.85-.65,3.85-.58,5.72.02.36.11.73.2,1.11.25,3.36.47,6.42-1.6,6.85-4.63s-1.94-5.88-5.3-6.35Z"/>
      </g>
      <g>
        <path class="cls-13" d="m24.66,212.85c-1.67,1.87.3,3.63,2.66,5.5.69.54,1.54.84,2.42.84h4.08c.43,0,.74-.44.58-.84-.57-1.53-2.85-1.83-3.28-2.42-2.52-3.4-5.21-4.47-6.46-3.07Z"/>
        <path class="cls-24" d="m29.1,207.74l-2.08,4.04c-.67,1.27-.51,2.09.09,2.52h0c.6.44,1.44.33,1.91-.25l3.81-4.31-3.72-2Z"/>
        <path class="cls-13" d="m82.53,217.82c-.69,2.8,1.26,3.16,4.72,3.81,3.47.65,6.05.62,6.22-.28.16-.83-1.13-1.9-4.21-3.63-3.69-2.07-6.28-1.72-6.73.1Z"/>
        <path class="cls-24" d="m84.75,212.44l-.29,4.53c-.11.73.36,1.42,1.08,1.58h0c.72.16,1.45-.28,1.65-.99l1.76-5.48-4.21.36Z"/>
        <path class="cls-18" d="m101.21,103.09s9.37,5.44,8.83,18.76c-.51,12.64-18.14,84.5-20.19,91.38-.1.33-.41.57-.76.56-1.49-.05-2.98-.4-4.49-1.3-.25-.15-.39-.43-.38-.71l3.57-79.81c.48-10.78,3.73-21.26,9.44-30.43l.05-.07,3.93,1.62Z"/>
        <path class="cls-27" d="m98.77,104.83l-7.76.33c-12.08.52-22.31,9.05-24.99,20.84l-1.89,8.33c-12.09,25.45-33.44,66.63-36.57,72.66-.23.45-.16,1,.2,1.35,1.28,1.24,2.64,2.04,4.05,2.52.59.2,1.25.01,1.64-.47,4.49-5.46,31.75-38.68,37.11-45.32,37.02-45.89,28.21-60.23,28.21-60.23Z"/>
        <path class="cls-22" d="m37.46,73.63c1.51-.43,2.71-1.54,3.19-3.03.16-.51.36-1.02.59-1.52,1.63-3.56,4.46-6.05,7.6-7.19,7.79-2.82,7.56-6.7,11.9-8.53,1.43-.61,2.73-1.73,3.57-3.14.65-1.1,1.51-2.16,2.54-3.11,4.31-3.93,10.99-5.22,14.74-2.98,3.82,2.29,5.6,3.62,7.27,7.72,1.04,2.56,2.16,11.58.38,15.07-1.19,2.33-4.4.05-6.08.73-2.33.95-4.55,2.76-6,5.03-.9,1.41-2.15,2.71-3.65,3.83-3.28,2.44-6.15,2.71-8.32,2.47-2.21-.24-4.41.58-5.9,2.24-3.26,3.63-8.21,5.29-12.55,3.71-1.34-.49-2.83-.24-4.03.51-1.41.88-3.17,1.24-5.04.79-2.06-.49-3.79-2.03-4.51-4.02-1.37-3.76.78-7.6,4.29-8.59Z"/>
        <path class="cls-20" d="m101.21,106.09s3.54-19.96.13-28.03c-2.1-4.97-8.08-13.78-18.15-11.72-6.71,1.37-17.62.2-15.53,17.22.88,7.18,4.84,19.61,12.9,26.21,0,0,11.76,3.82,20.66-3.68Z"/>
        <path class="cls-1" d="m83.15,72.17h0c-1.95.4-3.84-.86-4.24-2.8l-2.38-11.62,7.04-1.44,2.38,11.62c.4,1.95-.86,3.84-2.8,4.24Z"/>
        <path class="cls-21" d="m84.72,65.49h0c.24-.05.47-.12.69-.21l-1.84-8.99-7.04,1.44.27,1.31c.72,3.5,4.42,7.15,7.92,6.44Z"/>
        <path class="cls-24" d="m85.21,63.46h0c-3.08.63-7.98-2.25-8.61-5.33,0,0-1.22-4.9-.68-6.43,1.85-5.27,7.56-5.78,10-4.29,1.57.95,1.88,5.33,1.85,8.44-.04,3.15-1.2,7.34-2.55,7.62Z"/>
        <path class="cls-1" d="m73.69,55.73c.28,1.38,1.61,2.27,2.98,1.99l-1.02-4.99c-1.36.28-2.24,1.62-1.95,3Z"/>
        <path class="cls-1" d="m86.83,48.64l-9.96,1.93.42,2.07c-.95.25-1.73-.03-1.53.95.05.26.33,1.72.47,1.92.21-.14.41-.29.58-.47.36-.39.83-.62,1.35-.73,1.13-.24,2.09-.85,2.78-1.69.97-1.17,2.42-1.65,3.9-2.02,1.98-.49,1.98-1.96,1.98-1.96Z"/>
        <path class="cls-22" d="m81.67,37.75c-1.77.42-3.19,1.57-4,3.06-.85,1.56-2.31,2.66-3.95,3.35-.02,0-.04.02-.06.02-1.82.78-3.02,2.64-2.98,4.62,0,.26.03.52.07.77.14.82.15,1.67-.08,2.47-.11.37-.14.77-.05,1.17.29,1.4,1.73,2.28,3.22,1.98.62-.13,1.14-.44,1.53-.86.35-.39.83-.62,1.34-.73,1.12-.24,2.08-.84,2.77-1.68.97-1.17,2.37-1.94,3.88-2.01.32-.01.64-.05.96-.12,3.39-.69,5.56-4.05,4.76-7.45-.74-3.17-4.24-5.33-7.41-4.59Z"/>
        <path class="cls-24" d="m124.63,85.29l5.12-2.98c.82-.48,1.4-1.29,1.61-2.22.34-1.51,1.26-3.64,1.8-3.56,1,.15-.57,3.32.34,3.74.27.12,6.57-4.97,6.92-4.23.28.58-3.52,2.98-3.36,3.21.17.23,6.59-3.44,6.83-2.9.23.52-5.56,3.98-5.15,4.2.59.32,5.16-2.9,5.86-2.2.47.47-5.92,3.92-5.86,4.29.08.46,4.41-1.73,4.51-1.16.14.79-7.63,3.81-7.63,3.81l-9.85,3.85-1.14-3.85Z"/>
        <path class="cls-25" d="m128.47,82.28c-4.33-4.54-10.03-.58-14.96,1.31l-15.54,4.72s-12.64-10.24-17.41-13.47c-1.56-1.06-3.63-.97-5.09.22h0c-1.68,1.37-1.97,3.83-.65,5.56,7.72,10.17,19.98,21.37,25.68,20.79,5.65-.57,24.31-2.25,28.71-8.24,2.39-3.25,2.01-7.93-.74-10.88,0,0,.06.06,0,0Z"/>
      </g>
      <g>
        <path class="cls-16" d="m114.94,210.94s-1.36-25.99,15.57-42.3c7.68-7.4,26.47.98,9.28,13.7-7.1,5.26-18.05,10.13-24.85,28.6Z"/>
        <path class="cls-7" d="m137,173.31s-24.64,17.68-22.05,47.21"/>
      </g>
    </g>
  </g>
</svg>